M48
; DRILL file {KiCad 7.0.6} date Thu Feb 22 22:41:22 2024
; FORMAT={-:-/ absolute / inch / decimal}
; #@! TF.CreationDate,2024-02-22T22:41:22+11:00
; #@! TF.GenerationSoftware,Kicad,Pcbnew,7.0.6
; #@! TF.FileFunction,Plated,1,2,PTH
FMAT,2
INCH
; #@! TA.AperFunction,Plated,PTH,ViaDrill
T1C0.0157
; #@! TA.AperFunction,Plated,PTH,ComponentDrill
T2C0.0320
; #@! TA.AperFunction,Plated,PTH,ComponentDrill
T3C0.0354
; #@! TA.AperFunction,Plated,PTH,ComponentDrill
T4C0.0394
; #@! TA.AperFunction,Plated,PTH,ComponentDrill
T5C0.0433
; #@! TA.AperFunction,Plated,PTH,ComponentDrill
T6C0.0591
; #@! TA.AperFunction,Plated,PTH,ComponentDrill
T7C0.0866
%
G90
G05
T1
X4.5748Y-3.0157
X4.6299Y-3.0157
X4.8655Y-5.6499
X5.085Y-3.185
X5.0906Y-3.5922
X5.1953Y-3.5889
X5.2361Y-3.583
X5.3623Y-3.6409
X5.5883Y-2.7359
X5.6243Y-2.9179
X5.7313Y-2.9889
X6.375Y-3.195
X6.4325Y-4.4728
X6.4325Y-4.5909
X7.1575Y-5.0236
X7.775Y-2.975
X7.9Y-2.9235
X8.1242Y-3.488
X8.1242Y-3.374
X8.5863Y-3.3099
X8.5863Y-3.4299
X9.1553Y-4.0079
X9.1553Y-3.8489
X9.3268Y-4.225
T2
X4.9993Y-3.7929
X5.0993Y-3.7929
X5.1993Y-3.7929
X5.2993Y-3.7929
T4
X4.7138Y-6.0541
X4.8248Y-4.2205
X4.8248Y-4.3189
X4.8248Y-4.4173
X4.9494Y-5.3387
X4.9574Y-5.8671
X4.9713Y-4.6805
X5.0792Y-5.617
X5.2783Y-4.6805
X5.3957Y-4.2205
X5.3957Y-4.4173
X5.6299Y-3.4909
X5.6299Y-3.798
X5.6335Y-4.2331
X5.6335Y-4.5402
X5.711Y-4.983
X5.7775Y-5.2828
X5.8747Y-3.0399
X6.1818Y-3.0399
X6.3821Y-4.0397
X6.3821Y-4.3468
X6.3824Y-2.6646
X6.3824Y-2.9717
X6.3884Y-3.4266
X6.3884Y-3.7337
X6.7421Y-5.2506
X7.0492Y-5.2506
X7.1293Y-2.5393
X7.1293Y-2.8464
X7.1293Y-3.1943
X7.1293Y-3.5014
X7.1374Y-3.9465
X7.1374Y-4.2536
X7.8824Y-4.083
X7.8824Y-4.39
X7.8836Y-2.4965
X7.8836Y-2.8035
X7.8836Y-3.3229
X7.8836Y-3.6299
X8.6347Y-4.2926
X8.6347Y-4.5997
X8.6347Y-3.5432
X8.6347Y-3.8503
X8.6347Y-2.9013
X8.6347Y-3.2084
X9.375Y-2.9516
X9.375Y-3.2587
X9.375Y-3.6266
X9.375Y-3.9337
X9.375Y-4.4016
X9.375Y-4.7087
T5
X4.8473Y-2.4134
X4.8473Y-2.5134
X4.8473Y-2.6134
X4.8473Y-2.7134
X4.8473Y-2.8134
X4.8473Y-2.9134
X4.8473Y-3.0134
X4.8473Y-3.1134
X4.8473Y-3.2134
X4.8473Y-3.3134
X4.8473Y-3.4134
X4.8473Y-3.5134
X5.4473Y-2.4134
X5.4473Y-2.5134
X5.4473Y-2.6134
X5.4473Y-2.7134
X5.4473Y-2.8134
X5.4473Y-2.9134
X5.4473Y-3.0134
X5.4473Y-3.1134
X5.4473Y-3.2134
X5.4473Y-3.3134
X5.4473Y-3.4134
X5.4473Y-3.5134
T6
X4.4513Y-5.6118
X4.4665Y-5.6289
X4.4725Y-5.7215
X4.4785Y-5.6445
X4.61Y-5.49
X4.6226Y-5.5091
X4.6346Y-5.5247
X4.7105Y-5.5389
X5.1625Y-5.2668
X5.1656Y-5.1551
X5.1767Y-5.1751
X5.185Y-5.193
X5.3468Y-5.0706
X5.3551Y-5.0919
X5.3634Y-5.1098
X5.4344Y-5.1401
X5.8536Y-2.6205
X5.8553Y-3.3699
X5.8561Y-4.1228
X5.9036Y-2.5205
X5.9052Y-2.5433
X5.9052Y-2.563
X5.9053Y-3.2699
X5.9061Y-4.0228
X5.9069Y-3.2927
X5.9069Y-3.3124
X5.9076Y-4.0457
X5.9076Y-4.0654
X5.9345Y-4.9669
X5.9617Y-4.8584
X5.9681Y-4.8804
X5.9724Y-4.8996
X6.102Y-2.5433
X6.102Y-2.563
X6.1036Y-2.5205
X6.1037Y-3.2927
X6.1037Y-3.3124
X6.1045Y-4.0457
X6.1045Y-4.0654
X6.1053Y-3.2699
X6.1061Y-4.0228
X6.1536Y-2.6205
X6.1553Y-3.3699
X6.1561Y-4.1228
X6.1569Y-4.8151
X6.1603Y-4.8378
X6.1646Y-4.857
X6.2274Y-4.9019
X6.605Y-3.2956
X6.6067Y-4.045
X6.6069Y-2.5472
X6.655Y-3.1956
X6.6566Y-3.2185
X6.6566Y-3.2382
X6.6567Y-3.945
X6.6569Y-2.4472
X6.6583Y-3.9679
X6.6583Y-3.9876
X6.6585Y-2.47
X6.6585Y-2.4897
X6.7656Y-4.8406
X6.8156Y-4.7406
X6.8172Y-4.7634
X6.8172Y-4.7831
X6.8535Y-3.2185
X6.8535Y-3.2382
X6.855Y-3.1956
X6.8552Y-3.9679
X6.8552Y-3.9876
X6.8553Y-2.47
X6.8553Y-2.4897
X6.8567Y-3.945
X6.8569Y-2.4472
X6.905Y-3.2956
X6.9067Y-4.045
X6.9069Y-2.5472
X7.014Y-4.7634
X7.014Y-4.7831
X7.0156Y-4.7406
X7.0656Y-4.8406
X7.3545Y-3.8213
X7.3556Y-2.3198
X7.3564Y-3.0728
X7.4045Y-3.7213
X7.4056Y-2.2198
X7.4061Y-3.7441
X7.4061Y-3.7638
X7.4064Y-2.9728
X7.4072Y-2.2427
X7.4072Y-2.2624
X7.4079Y-2.9956
X7.4079Y-3.0153
X7.6029Y-3.7441
X7.6029Y-3.7638
X7.604Y-2.2427
X7.604Y-2.2624
X7.6045Y-3.7213
X7.6048Y-2.9956
X7.6048Y-3.0153
X7.6056Y-2.2198
X7.6064Y-2.9728
X7.6545Y-3.8213
X7.6556Y-2.3198
X7.6564Y-3.0728
X8.1042Y-3.2197
X8.1049Y-3.9727
X8.106Y-2.4712
X8.1542Y-3.1197
X8.1549Y-3.8727
X8.1557Y-3.1425
X8.1557Y-3.1622
X8.156Y-2.3712
X8.1565Y-3.8955
X8.1565Y-3.9152
X8.1576Y-2.3941
X8.1576Y-2.4138
X8.3526Y-3.1425
X8.3526Y-3.1622
X8.3534Y-3.8955
X8.3534Y-3.9152
X8.3542Y-3.1197
X8.3544Y-2.3941
X8.3544Y-2.4138
X8.3549Y-3.8727
X8.356Y-2.3712
X8.4042Y-3.2197
X8.4049Y-3.9727
X8.406Y-2.4712
X8.8535Y-2.8473
X8.8553Y-3.5967
X8.857Y-4.3461
X8.9035Y-2.7473
X8.9051Y-2.7701
X8.9051Y-2.7898
X8.9053Y-3.4967
X8.9068Y-3.5195
X8.9068Y-3.5392
X8.907Y-4.2461
X8.9086Y-4.269
X8.9086Y-4.2886
X9.102Y-2.7701
X9.102Y-2.7898
X9.1035Y-2.7473
X9.1037Y-3.5195
X9.1037Y-3.5392
X9.1053Y-3.4967
X9.1054Y-4.269
X9.1054Y-4.2886
X9.107Y-4.2461
X9.1535Y-2.8473
X9.1553Y-3.5967
X9.157Y-4.3461
X9.6016Y-2.926
X9.6016Y-3.676
X9.6016Y-4.426
X9.6516Y-2.826
X9.6516Y-3.576
X9.6516Y-4.326
X9.6531Y-2.8489
X9.6531Y-2.8686
X9.6531Y-3.5989
X9.6531Y-3.6186
X9.6531Y-4.3489
X9.6531Y-4.3686
X9.85Y-2.8489
X9.85Y-2.8686
X9.85Y-3.5989
X9.85Y-3.6186
X9.85Y-4.3489
X9.85Y-4.3686
X9.8516Y-2.826
X9.8516Y-3.576
X9.8516Y-4.326
X9.9016Y-2.926
X9.9016Y-3.676
X9.9016Y-4.426
T7
X4.52Y-4.8
X5.2523Y-2.7549
X6.07Y-4.64
X6.755Y-3.0179
X8.2549Y-2.9399
X8.4252Y-4.6181
T3
G00X4.4987Y-2.5032
M15
G01X4.4987Y-2.4874
M16
G05
G00X4.4987Y-2.6213
M15
G01X4.4987Y-2.6055
M16
G05
G00X4.4987Y-2.7787
M15
G01X4.4987Y-2.763
M16
G05
G00X4.4987Y-2.8049
M15
G01X4.4987Y-2.8206
M16
G05
G00X4.6798Y-2.486
M15
G01X4.6798Y-2.5017
M16
G05
G00X4.6798Y-2.6041
M15
G01X4.6798Y-2.6198
M16
G05
G00X4.6798Y-2.7616
M15
G01X4.6798Y-2.7773
M16
G05
G00X4.6798Y-2.8221
M15
G01X4.6798Y-2.8063
M16
G05
T6
G00X5.0945Y-4.0984
M15
G01X5.1457Y-4.0984
M16
G05
G00X5.0945Y-4.5394
M15
G01X5.1457Y-4.5394
M16
G05
T0
M30
