M48
; DRILL file {KiCad 7.0.6} date Thu Feb 22 22:41:22 2024
; FORMAT={-:-/ absolute / inch / decimal}
; #@! TF.CreationDate,2024-02-22T22:41:22+11:00
; #@! TF.GenerationSoftware,Kicad,Pcbnew,7.0.6
; #@! TF.FileFunction,NonPlated,1,2,NPTH
FMAT,2
INCH
; #@! TA.AperFunction,NonPlated,NPTH,ComponentDrill
T1C0.0315
; #@! TA.AperFunction,NonPlated,NPTH,ComponentDrill
T2C0.0709
; #@! TA.AperFunction,NonPlated,NPTH,ComponentDrill
T3C0.1570
%
G90
G05
T1
X4.5893Y-2.4309
X4.5893Y-2.4323
X4.5893Y-2.7065
X4.5893Y-2.7079
T2
X4.4937Y-5.8313
X4.8111Y-5.5878
X5.1595Y-5.3786
X5.522Y-5.2096
X5.8036Y-2.7205
X5.8053Y-3.4699
X5.8061Y-4.2228
X5.9073Y-5.0753
X6.2036Y-2.7205
X6.2053Y-3.4699
X6.2061Y-4.2228
X6.2978Y-4.9887
X6.555Y-3.3956
X6.5567Y-4.145
X6.5569Y-2.6472
X6.7156Y-4.9406
X6.955Y-3.3956
X6.9567Y-4.145
X6.9569Y-2.6472
X7.1156Y-4.9406
X7.3045Y-3.9213
X7.3056Y-2.4198
X7.3064Y-3.1728
X7.7045Y-3.9213
X7.7056Y-2.4198
X7.7064Y-3.1728
X8.0542Y-3.3197
X8.0549Y-4.0727
X8.056Y-2.5712
X8.4542Y-3.3197
X8.4549Y-4.0727
X8.456Y-2.5712
X8.8035Y-2.9473
X8.8053Y-3.6967
X8.807Y-4.4461
X9.2035Y-2.9473
X9.2053Y-3.6967
X9.207Y-4.4461
X9.5516Y-3.026
X9.5516Y-3.776
X9.5516Y-4.526
X9.9516Y-3.026
X9.9516Y-3.776
X9.9516Y-4.526
T3
X4.6524Y-5.7096
X5.3407Y-5.2941
X6.0036Y-2.7205
X6.0053Y-3.4699
X6.0061Y-4.2228
X6.1026Y-5.032
X6.755Y-3.3956
X6.7567Y-4.145
X6.7569Y-2.6472
X6.9156Y-4.9406
X7.5045Y-3.9213
X7.5056Y-2.4198
X7.5064Y-3.1728
X8.2542Y-3.3197
X8.2549Y-4.0727
X8.256Y-2.5712
X9.0035Y-2.9473
X9.0053Y-3.6967
X9.007Y-4.4461
X9.7516Y-3.026
X9.7516Y-3.776
X9.7516Y-4.526
T0
M30
